<?xml version="1.0" encoding="UTF-8"?>
<svg version="1.1" xmlns="http://www.w3.org/2000/svg" width="1024" height="1024">
<path d="M0 0 C0.99 0.495 0.99 0.495 2 1 C2.07001188 25.98185803 2.12294977 50.96370141 2.15543652 75.9456377 C2.1709201 87.54460233 2.19203807 99.14350608 2.22631836 110.74243164 C2.2561751 120.84942387 2.27556414 130.95637202 2.28226548 141.06340712 C2.28618407 146.41739111 2.29542416 151.77124899 2.31719017 157.12519264 C2.33749649 162.16070885 2.34384569 167.19604654 2.33932304 172.23159981 C2.34015087 174.08317789 2.34615126 175.93476171 2.35761642 177.78630447 C2.37246911 180.30781623 2.36898033 182.82864755 2.36076355 185.35017395 C2.36950207 186.0884975 2.3782406 186.82682105 2.38724393 187.58751804 C2.34344919 192.53500079 2.34344919 192.53500079 0.58818054 194.91147614 C-1.15166322 196.10394853 -2.86682283 197.11330971 -4.75854492 198.04956055 C-5.50750534 198.42392746 -6.25646576 198.79829437 -7.02812195 199.18400574 C-7.83739639 199.58090103 -8.64667084 199.97779633 -9.48046875 200.38671875 C-10.32611893 200.80742142 -11.1717691 201.22812408 -12.04304504 201.66157532 C-14.75509508 203.00921679 -17.47117191 204.34850578 -20.1875 205.6875 C-21.96577126 206.56910401 -23.74376894 207.4512601 -25.52148438 208.33398438 C-29.02045202 210.07063718 -32.52107772 211.80387873 -36.02294922 213.53466797 C-40.55062146 215.77426135 -45.06743507 218.03497894 -49.58203125 220.30078125 C-56.74254834 223.89022044 -63.95943937 227.35128317 -71.19921875 230.77734375 C-82.38711335 236.09514414 -93.43110685 241.69661226 -104.48110008 247.29365349 C-109.59902982 249.8854596 -114.72044475 252.47031017 -119.8437748 255.05142403 C-123.18927739 256.73735028 -126.53273067 258.4271316 -129.87231445 260.12475586 C-133.14780905 261.78958415 -136.42803873 263.44470417 -139.71182823 265.09310722 C-140.95317095 265.71838998 -142.19275104 266.34718499 -143.43049049 266.97957039 C-145.1453559 267.85505461 -146.86708203 268.71706137 -148.58911133 269.57836914 C-149.56455399 270.071642 -150.53999664 270.56491486 -151.54499817 271.07313538 C-154 272 -154 272 -157 271 C-157.02336484 245.58294147 -157.04099681 220.16588455 -157.05181217 194.74881744 C-157.0569675 182.94712464 -157.06399569 171.14543852 -157.07543945 159.34375 C-157.08540958 149.05688901 -157.09185899 138.77003286 -157.09408849 128.48316717 C-157.09539164 123.03685247 -157.09845247 117.5905516 -157.10573006 112.14424133 C-157.11252698 107.01600387 -157.11460947 101.88778591 -157.11310768 96.75954437 C-157.11338236 94.87943669 -157.11536567 92.99932833 -157.11920547 91.11922455 C-157.12420009 88.54711063 -157.12297707 85.9750698 -157.12025452 83.4029541 C-157.12316736 82.66363097 -157.1260802 81.92430783 -157.12908131 81.16258097 C-157.11539522 76.36002936 -156.85059923 71.73424458 -156 67 C-153.56640625 65.1953125 -153.56640625 65.1953125 -150.5625 64.125 C-146.39955512 62.66811532 -146.39955512 62.66811532 -143 60 C-141.08203125 59.25390625 -141.08203125 59.25390625 -138.8125 58.5625 C-134.74248286 57.2716855 -130.89700093 55.74121318 -127 54 C-127 53.34 -127 52.68 -127 52 C-125.99195313 51.89042969 -124.98390625 51.78085937 -123.9453125 51.66796875 C-119.9993276 51.10015123 -116.56793482 49.83194726 -112.875 48.3125 C-111.10769531 47.59513672 -111.10769531 47.59513672 -109.3046875 46.86328125 C-105.9256749 45.43148239 -102.60757399 43.88633279 -99.28515625 42.328125 C-91.07286574 38.51755141 -82.7155964 35.06683187 -74.35498047 31.59686279 C-60.36081976 25.78686361 -46.39162126 19.92632922 -32.5 13.875 C-31.30608643 13.35591064 -30.11217285 12.83682129 -28.88208008 12.30200195 C-24.56554276 10.42438588 -20.24955296 8.54553459 -15.93554688 6.66210938 C-13.21027149 5.47538411 -10.48093474 4.29862919 -7.75 3.125 C-6.97462891 2.78452637 -6.19925781 2.44405273 -5.40039062 2.09326172 C-3.6247769 1.33528733 -1.81501973 0.65805218 0 0 Z " fill="#E4EC30" transform="translate(664,404)"/>
<path d="M0 0 C1.45408533 0.72412265 2.90276261 1.45917747 4.34667969 2.20336914 C5.12927155 2.59683533 5.9118634 2.99030151 6.71817017 3.39569092 C9.24003567 4.6668843 11.75430865 5.95233732 14.26855469 7.23852539 C16.00142443 8.11595744 17.73466113 8.99266515 19.46826172 9.86865234 C28.61461703 14.49986813 37.75570445 19.14967383 46.78515625 24.00585938 C51.18808048 26.37170507 55.64277604 28.62688031 60.11547852 30.85742188 C60.81461459 31.20653185 61.51375067 31.55564182 62.23407269 31.91533089 C64.49534365 33.04434315 66.75693434 34.17271317 69.01855469 35.30102539 C70.50713555 36.04399198 71.99570163 36.78698821 73.48425293 37.53001404 C76.6047743 39.08756089 79.7254266 40.64484507 82.84614563 42.20199585 C89.03903178 45.29227563 95.23088992 48.38461346 101.42264271 51.47716331 C106.0912081 53.80883927 110.76014715 56.13976057 115.42993164 58.46899414 C120.00752015 60.75228423 124.58407694 63.03763072 129.15997887 65.32429886 C130.87718005 66.18199155 132.59472654 67.03899334 134.31266212 67.89521408 C144.14272939 72.79513907 153.91965992 77.77921388 163.62119007 82.92970848 C168.98694957 85.77645967 174.39508203 88.50512834 179.86621094 91.14477539 C182.01855469 92.30102539 182.01855469 92.30102539 184.01855469 94.30102539 C184.22986161 97.3726899 184.31414892 100.35554009 184.31289673 103.42939758 C184.3202501 104.38721341 184.32760348 105.34502923 184.33517969 106.33186978 C184.35731686 109.56159985 184.36495158 112.79120139 184.37255859 116.02099609 C184.385083 118.3284242 184.39837616 120.63584824 184.41238403 122.94326782 C184.447246 129.22632849 184.46831834 135.50935867 184.48479509 141.79249215 C184.49508521 145.71461982 184.50723703 149.63673793 184.51981735 153.55885887 C184.55356109 164.41483284 184.58283206 175.27079504 184.59731483 186.12681293 C184.60113472 188.94456805 184.60497537 191.76232313 184.60888672 194.58007812 C184.6098542 195.28043004 184.61082168 195.98078196 184.61181848 196.70235666 C184.62842391 208.05104065 184.67910484 219.39930334 184.74404807 230.74780331 C184.81015781 242.39494474 184.84554354 254.04185019 184.85260332 265.68917912 C184.85731396 272.23055502 184.87535764 278.77126512 184.92552567 285.31246376 C184.97194635 291.46454668 184.98061206 297.61552215 184.9600029 303.76773453 C184.95900851 306.0280913 184.97175761 308.28850127 184.99911499 310.5486927 C185.03434197 313.63103681 185.02045815 316.70936031 184.99404907 319.79170227 C185.01598756 320.69014667 185.03792606 321.58859108 185.06052935 322.51426107 C185.00857784 325.01869232 184.88252496 326.94795925 184.01855469 329.30102539 C181.61405969 331.58990336 179.01717343 332.92640914 176.01855469 334.30102539 C174.64129354 335.02077971 173.26549471 335.74334636 171.8918457 336.4699707 C170.43737905 337.19372027 168.98082742 337.91329155 167.52246094 338.62915039 C166.73064926 339.02245544 165.93883759 339.4157605 165.12303162 339.82098389 C162.6109416 341.06821462 160.09623686 342.31004377 157.58105469 343.55102539 C154.28924358 345.17832857 150.99885055 346.80845065 147.70996094 348.44165039 C146.89878311 348.84428604 146.08760529 349.24692169 145.25184631 349.66175842 C139.07733339 352.74046924 132.97845656 355.94770933 126.89297485 359.19804382 C121.15650791 362.25277363 115.34119491 365.10564653 109.45605469 367.86352539 C107.48418976 368.79734346 105.51283721 369.73224422 103.54199219 370.66821289 C102.6006543 371.11519531 101.65931641 371.56217773 100.68945312 372.02270508 C95.04363857 374.72485179 89.4572966 377.54516123 83.87060547 380.36694336 C81.39697025 381.61452157 78.91889452 382.85311488 76.44042969 384.09106445 C75.15240758 384.73442102 73.8646497 385.37830681 72.57714844 386.02270508 C68.47881624 388.07384153 64.37681985 390.11744163 60.27246094 392.15649414 C51.28067091 396.62982551 42.29876104 401.10090324 33.45605469 405.86352539 C25.80611843 409.98257659 17.9880813 413.72186083 10.12182617 417.40869141 C9.20087158 417.84238037 8.27991699 418.27606934 7.33105469 418.72290039 C6.43644531 419.1437793 5.54183594 419.5646582 4.62011719 419.99829102 C1.35172152 421.6349426 -1.7394298 423.5139661 -4.81347656 425.48950195 C-8.90205119 427.01995489 -12.24078104 425.61581492 -16.11499023 423.96923828 C-17.2194751 423.40970459 -18.32395996 422.8501709 -19.46191406 422.27368164 C-20.06798996 421.96918091 -20.67406586 421.66468018 -21.29850769 421.35095215 C-23.259422 420.36302611 -25.21419305 419.36358054 -27.16894531 418.36352539 C-28.52690695 417.67605348 -29.88514462 416.98912654 -31.24365234 416.30273438 C-39.31696558 412.21408886 -47.36555957 408.07521779 -55.34155273 403.79931641 C-61.9854005 400.24547766 -68.73442818 396.90332899 -75.47912598 393.54653931 C-83.52790548 389.54030927 -91.57242912 385.52552799 -99.61694336 381.51074219 C-101.81612935 380.41366952 -104.01567315 379.31731383 -106.21557617 378.22167969 C-117.23580837 372.73248341 -128.23614687 367.22568437 -139.09457397 361.42190552 C-145.6082074 357.94638265 -152.20415091 354.64750855 -158.82012939 351.37200928 C-165.34306482 348.13973829 -171.8544518 344.88410581 -178.36889648 341.63476562 C-180.09544312 340.77405444 -181.82234173 339.91404899 -183.54956055 339.0546875 C-186.07856337 337.79620135 -188.60629911 336.53520281 -191.13378906 335.27368164 C-191.90963852 334.88833755 -192.68548798 334.50299347 -193.48484802 334.10597229 C-198.86757543 331.41489527 -198.86757543 331.41489527 -199.98144531 330.30102539 C-200.09725526 327.26595518 -200.14709872 324.25309499 -200.15553284 321.21697998 C-200.16203179 320.25185148 -200.16853074 319.28672297 -200.17522663 318.29234815 C-200.19573873 315.03190262 -200.20887574 311.7714697 -200.22192383 308.51098633 C-200.23472771 306.18400393 -200.24786301 303.85702334 -200.26130676 301.53004456 C-200.37726278 280.27863348 -200.4340876 259.02674847 -200.47807407 237.77506638 C-200.48406345 234.93101734 -200.49014906 232.08696853 -200.49633789 229.24291992 C-200.49787087 228.53602127 -200.49940385 227.82912263 -200.50098329 227.10080281 C-200.52669856 215.64860696 -200.58357881 204.19677885 -200.65280319 192.74477217 C-200.72324976 180.99372328 -200.76350454 169.24286461 -200.77482361 157.4916079 C-200.78240107 150.89095423 -200.80372635 144.29099404 -200.85785103 137.69054413 C-200.90816098 131.4818696 -200.92093045 125.27425849 -200.90460014 119.06541252 C-200.90520561 116.78408378 -200.91956745 114.5027119 -200.94854736 112.22156715 C-200.98600762 109.11074513 -200.97436095 106.00386967 -200.95021057 102.89300537 C-200.97283118 101.98609695 -200.99545179 101.07918853 -201.01875788 100.14479804 C-200.96871908 97.61972461 -200.85026885 95.67438651 -199.98144531 93.30102539 C-197.56865122 91.0262337 -194.98242973 89.66577157 -191.98144531 88.30102539 C-191.05470505 87.79908157 -190.12796478 87.29713776 -189.17314148 86.77998352 C-188.32443985 86.35936142 -187.47573822 85.93873932 -186.60131836 85.50537109 C-185.62216965 85.01748611 -184.64302094 84.52960114 -183.63420105 84.02693176 C-182.07938774 83.25961983 -182.07938774 83.25961983 -180.49316406 82.47680664 C-179.3953511 81.93050095 -178.29753815 81.38419525 -177.16645813 80.82133484 C-173.66918324 79.08155069 -170.16928272 77.34713861 -166.66894531 75.61352539 C-162.08811304 73.34160499 -157.5086121 71.06703334 -152.93066406 68.78930664 C-151.81999573 68.2367218 -150.70932739 67.68413696 -149.56500244 67.11480713 C-141.29730908 62.98822529 -133.0999948 58.74175151 -124.9440918 54.39892578 C-114.25910535 48.7140451 -103.34074528 43.51054292 -92.41894531 38.30102539 C-84.46149341 34.50523613 -76.6435054 30.57604005 -68.90332031 26.35571289 C-63.89206063 23.67966827 -58.74116241 21.29115666 -53.60644531 18.86352539 C-46.63129215 15.56435126 -39.72128348 12.19423409 -32.91894531 8.55102539 C-32.24057617 8.18968506 -31.56220703 7.82834473 -30.86328125 7.45605469 C-28.24071497 6.05622317 -25.62085982 4.65274308 -23.01611328 3.2199707 C-21.13780165 2.18909216 -19.2486717 1.18107177 -17.35644531 0.17602539 C-15.75929688 -0.6940918 -15.75929688 -0.6940918 -14.12988281 -1.58178711 C-9.04904373 -3.38466549 -4.77596141 -2.2100968 0 0 Z M-16.59242249 27.36264038 C-17.25525897 27.69199699 -17.91809545 28.0213536 -18.60101789 28.36069071 C-20.82422947 29.46782651 -23.04152809 30.58631777 -25.2590332 31.70483398 C-26.85045394 32.50029001 -28.44222398 33.29504753 -30.03431702 34.0891571 C-34.3601102 36.24934002 -38.68086118 38.41943649 -43.00073934 40.59141874 C-47.51829357 42.86082905 -52.04021401 45.12150611 -56.56163025 47.38320923 C-64.15450885 51.18287426 -71.74439968 54.98845051 -79.33227539 58.7980957 C-89.07653764 63.69037123 -98.82536128 68.57348204 -108.57576847 73.45349693 C-116.95174077 77.64563253 -125.32592151 81.84134233 -133.69965053 86.03795671 C-136.39456893 87.38844992 -139.08967279 88.73857254 -141.78477669 90.08869553 C-146.01696778 92.20918059 -150.24804543 94.33187177 -154.47826195 96.45629311 C-156.0327799 97.23661468 -157.58763438 98.01626624 -159.14284515 98.79520607 C-161.26198411 99.85676474 -163.37987685 100.92076881 -165.49745178 101.98544312 C-166.1163184 102.29478424 -166.73518502 102.60412537 -167.37280518 102.92284048 C-170.03257362 104.26316542 -172.49758482 105.64511839 -174.98144531 107.30102539 C-175.2756934 110.09898315 -175.37251689 112.67571893 -175.34220886 115.47598267 C-175.34477214 116.33115396 -175.34733541 117.18632525 -175.34997636 118.06741083 C-175.35494073 120.94966987 -175.33837783 123.8314118 -175.32202148 126.71362305 C-175.32117578 128.77300504 -175.32164924 130.83238794 -175.323349 132.89176941 C-175.32421261 138.4969227 -175.3065278 144.10188486 -175.28562713 149.70699358 C-175.26692109 155.55932182 -175.26511469 161.41165405 -175.2615509 167.26400757 C-175.25221254 178.35272276 -175.22757456 189.44134961 -175.19750243 200.53002584 C-175.16401409 213.15134325 -175.14748643 225.7726648 -175.13241613 238.39401555 C-175.10102654 264.36306787 -175.04823131 290.33204169 -174.98144531 316.30102539 C-148.45379434 330.27289323 -121.64994417 343.70277693 -94.85979366 357.16197777 C-86.51386069 361.35533628 -78.17202482 365.55646602 -69.83959961 369.77661133 C-62.50498101 373.49139449 -55.16351284 377.19219179 -47.8132382 380.87590659 C-43.94052047 382.81734135 -40.07151466 384.76545091 -36.21064568 386.73035812 C-32.59842556 388.5683957 -28.97728569 390.3874624 -25.34834862 392.19225883 C-24.02018184 392.85691974 -22.69542594 393.52844726 -21.37444687 394.20728111 C-19.57199953 395.13224402 -17.75580823 396.03027756 -15.93907166 396.92684937 C-14.92731841 397.43668554 -13.91556517 397.94652172 -12.87315273 398.47180748 C-7.21033492 400.09566124 -2.30409773 396.5876972 2.7114563 394.08155823 C3.35896186 393.75936544 4.00646742 393.43717265 4.67359436 393.10521644 C6.83102094 392.03047452 8.98555909 390.95006947 11.14013672 389.86962891 C12.69099666 389.09555467 14.24202647 388.32182067 15.79321289 387.54840088 C19.99734851 385.4508864 24.19894313 383.34832927 28.39998865 381.24463391 C32.79849134 379.04284868 37.19894651 376.84497174 41.59909058 374.64646912 C48.98628485 370.95469043 56.37178742 367.25954433 63.75634766 363.5625 C72.29384894 359.28830495 80.83421953 355.01988671 89.37609971 350.75445038 C96.71187988 347.09109776 104.04609693 343.42463041 111.3790158 339.75555366 C115.75787471 337.56456525 120.13726685 335.37466127 124.51807022 333.18756294 C128.63534724 331.1318124 132.75064855 329.07215971 136.86445618 327.00947571 C138.37466216 326.25305021 139.88555097 325.49798621 141.39716721 324.74438286 C143.45985724 323.71576923 145.52002134 322.68226178 147.57962036 321.6474762 C148.73328661 321.07026605 149.88695286 320.4930559 151.07557869 319.89835453 C152.04676077 319.37123591 153.01794285 318.8441173 154.01855469 318.30102539 C154.8003264 317.90583364 155.58209812 317.51064188 156.38755989 317.10347462 C159.02317704 314.19079452 158.58254752 310.8473807 158.55340576 307.11538696 C158.5669991 305.84889079 158.5669991 305.84889079 158.58086705 304.55680883 C158.60626409 301.71693299 158.60290768 298.87781889 158.59960938 296.0378418 C158.61157321 294.00611885 158.62518274 291.97440503 158.64031982 289.94270325 C158.67572343 284.41581355 158.68503404 278.88917139 158.68758297 273.36217928 C158.69137629 268.75218939 158.70608594 264.14225748 158.72027135 259.53228986 C158.7528662 248.65797142 158.7626068 237.78378549 158.75976562 226.90942383 C158.75736197 215.68301988 158.79957457 204.45738447 158.86274028 193.23117507 C158.91500216 183.600506 158.93650293 173.97008842 158.93394399 164.33927858 C158.93292281 158.5837565 158.94439338 152.82891708 158.98665619 147.07353592 C159.02531579 141.66085445 159.02574541 136.24951042 158.99658966 130.83678246 C158.99239787 128.84896459 159.00190862 126.8610642 159.02603149 124.87338829 C159.05682178 122.16088626 159.03841818 119.4530298 159.00750732 116.7406311 C159.02808158 115.95181537 159.04865583 115.16299964 159.06985354 114.3502804 C159.08989601 111.8363795 159.08989601 111.8363795 158.01855469 108.30102539 C155.58578376 106.10604447 152.96501441 104.69982569 150.01855469 103.30102539 C149.09131592 102.80256104 148.16407715 102.30409668 147.20874023 101.79052734 C145.94477417 101.1711731 145.94477417 101.1711731 144.65527344 100.53930664 C143.68396484 100.05913086 142.71265625 99.57895508 141.71191406 99.08422852 C140.71998047 98.59889648 139.72804688 98.11356445 138.70605469 97.61352539 C132.41962597 94.52792596 126.1670009 91.39459046 119.98384094 88.10697937 C110.66933211 83.15539939 101.26998807 78.38468809 91.83105469 73.67602539 C91.1540835 73.33826269 90.47711231 73.00049999 89.77962685 72.65250206 C84.86068542 70.19916393 79.93981957 67.74969867 75.01855469 65.30102539 C69.41310759 62.51192363 63.8083978 59.72135774 58.20605469 56.92602539 C57.53162386 56.58951839 56.85719303 56.2530114 56.16232491 55.90630722 C46.75657815 51.20946163 37.41056855 46.41305653 28.12744141 41.4777832 C22.12118434 38.28530174 16.06358612 35.19516374 9.98754883 32.13793945 C8.68794166 31.48222781 7.39015708 30.82289429 6.09399414 30.16040039 C4.16771394 29.17608327 2.2364603 28.20225298 0.30371094 27.23071289 C-0.81124756 26.66594238 -1.92620605 26.10117187 -3.07495117 25.51928711 C-8.43044854 23.27452173 -11.78043537 24.91384695 -16.59242249 27.36264038 Z " fill="#E3EB2F" transform="translate(519.9814453125,289.698974609375)"/>
<path d="M0 0 C0.66 0 1.32 0 2 0 C1.99907821 1.02890287 1.99815641 2.05780575 1.99720669 3.1178875 C1.9750349 28.12080994 1.95858745 53.12373111 1.94818783 78.1266613 C1.94302534 90.2177452 1.93598354 102.30882261 1.92456055 114.39990234 C1.91461227 124.93501226 1.90814623 135.47011749 1.90591151 146.00523198 C1.90460465 151.58661233 1.90152033 157.16797925 1.89426994 162.74935532 C1.88750747 167.99740722 1.88538351 173.2454401 1.88689232 178.49349594 C1.88661609 180.42450056 1.88461231 182.35550579 1.88079453 184.28650665 C1.87585376 186.91326737 1.87700316 189.53995529 1.87974548 192.16671753 C1.87683264 192.93908151 1.8739198 193.71144548 1.87091869 194.50721443 C1.80786162 198.38116609 1.80786162 198.38116609 3 202 C2.505 202.99 2.505 202.99 2 204 C1.01 203.67 0.02 203.34 -1 203 C-1.02335925 177.56567074 -1.04099407 152.13134309 -1.05181217 126.69700527 C-1.05696869 114.88743672 -1.06399914 103.07787483 -1.07543945 91.26831055 C-1.08540594 80.97523321 -1.09185812 70.6821607 -1.09408849 60.38907868 C-1.09539225 54.93888347 -1.09845701 49.48870206 -1.10573006 44.03851128 C-1.11252124 38.90781461 -1.11461063 33.77713743 -1.11310768 28.64643669 C-1.11338261 26.76429641 -1.11536935 24.88215547 -1.11920547 23.00001907 C-1.12419109 20.4275554 -1.12298033 17.85516501 -1.12025452 15.28269958 C-1.12316736 14.54046361 -1.1260802 13.79822763 -1.12908131 13.03349966 C-1.11634588 8.57727877 -0.72374279 4.38276239 0 0 Z " fill="#DFE71C" transform="translate(508,472)"/>
<path d="M0 0 C-1 3 -1 3 -2.70703125 4.203125 C-3.40183594 4.54859375 -4.09664063 4.8940625 -4.8125 5.25 C-5.49957031 5.60578125 -6.18664062 5.9615625 -6.89453125 6.328125 C-9.35077442 7.11193544 -10.60042386 6.84119973 -13 6 C-11.21118264 4.99491199 -9.41885304 3.99607264 -7.625 3 C-6.62726563 2.443125 -5.62953125 1.88625 -4.6015625 1.3125 C-2 0 -2 0 0 0 Z " fill="#E0E825" transform="translate(403,366)"/>
<path d="M0 0 C4.05281712 1.22527029 7.44360764 2.69880494 11 5 C7.96929372 6.28222189 6.96403086 5.98589446 3.8125 4.75 C1 3 1 3 0 0 Z " fill="#DFE628" transform="translate(496,707)"/>
<path d="M0 0 C-1.28913487 0.67154933 -2.58140204 1.33708859 -3.875 2 C-4.59429687 2.37125 -5.31359375 2.7425 -6.0546875 3.125 C-8 4 -8 4 -10 4 C-10 3.34 -10 2.68 -10 2 C-4.10714286 -1.34821429 -4.10714286 -1.34821429 0 0 Z " fill="#E0E726" transform="translate(468,311)"/>
<path d="M0 0 C0 0.66 0 1.32 0 2 C-2.35438733 3.42944945 -3.48032433 4.08661261 -6.25 3.625 C-6.8275 3.41875 -7.405 3.2125 -8 3 C-3.375 0 -3.375 0 0 0 Z " fill="#DFE626" transform="translate(530,705)"/>
<path d="M0 0 C0.33 0 0.66 0 1 0 C1 1.65 1 3.3 1 5 C0.67 5 0.34 5 0 5 C0 3.35 0 1.7 0 0 Z " fill="#E6EC36" transform="translate(676,530)"/>
<path d="" fill="#E7EC35" transform="translate(0,0)"/>
<path d="" fill="#E7EC36" transform="translate(0,0)"/>
<path d="" fill="#E7EB36" transform="translate(0,0)"/>
<path d="" fill="#E6EC37" transform="translate(0,0)"/>
<path d="" fill="#E6EC39" transform="translate(0,0)"/>
<path d="" fill="#E7EC38" transform="translate(0,0)"/>
<path d="M0 0 C2 1 2 1 2 1 Z " fill="#DEE538" transform="translate(604,670)"/>
<path d="" fill="#E7EC37" transform="translate(0,0)"/>
<path d="M0 0 C2 1 2 1 2 1 Z " fill="#E8ED39" transform="translate(640,411)"/>
<path d="M0 0 C2 1 2 1 2 1 Z " fill="#E6EC38" transform="translate(650,408)"/>
<path d="" fill="#E6ED37" transform="translate(0,0)"/>
<path d="M0 0 C2 1 2 1 2 1 Z " fill="#E6ED34" transform="translate(675,398)"/>
<path d="M0 0 C2 1 2 1 2 1 Z " fill="#E5E73B" transform="translate(374,383)"/>
<path d="M0 0 C2 1 2 1 2 1 Z " fill="#E6EE37" transform="translate(640,380)"/>
<path d="M0 0 C2 1 2 1 2 1 Z " fill="#DDE13B" transform="translate(344,368)"/>
<path d="M0 0 C2 1 2 1 2 1 Z " fill="#E2E739" transform="translate(406,367)"/>
<path d="M0 0 C2 1 2 1 2 1 Z " fill="#DFE240" transform="translate(360,360)"/>
<path d="M0 0 C2 1 2 1 2 1 Z " fill="#E2E63D" transform="translate(422,359)"/>
<path d="M0 0 C2 1 2 1 2 1 Z " fill="#E2E839" transform="translate(438,351)"/>
<path d="M0 0 C2 1 2 1 2 1 Z " fill="#E3E739" transform="translate(454,343)"/>
<path d="M0 0 C2 1 2 1 2 1 Z " fill="#DEE638" transform="translate(401,339)"/>
<path d="M0 0 C2 1 2 1 2 1 Z " fill="#E2E63A" transform="translate(470,335)"/>
<path d="M0 0 C2 1 2 1 2 1 Z " fill="#E3E63D" transform="translate(486,327)"/>
<path d="M0 0 C2 1 2 1 2 1 Z " fill="#E3E73C" transform="translate(502,319)"/>
<path d="M0 0 C2 1 2 1 2 1 Z " fill="#DDE038" transform="translate(456,312)"/>
<path d="M0 0 C2 1 2 1 2 1 Z " fill="#DEE03B" transform="translate(472,304)"/>
<path d="" fill="#686968" transform="translate(0,0)"/>
<path d="" fill="#D6DE36" transform="translate(0,0)"/>
<path d="" fill="#DCE13B" transform="translate(0,0)"/>
<path d="" fill="#DDE338" transform="translate(0,0)"/>
<path d="" fill="#DCE53C" transform="translate(0,0)"/>
<path d="" fill="#DEE536" transform="translate(0,0)"/>
<path d="" fill="#DDE33E" transform="translate(0,0)"/>
<path d="" fill="#DDE536" transform="translate(0,0)"/>
<path d="" fill="#DDE637" transform="translate(0,0)"/>
<path d="" fill="#DEE53B" transform="translate(0,0)"/>
<path d="" fill="#E0E639" transform="translate(0,0)"/>
<path d="" fill="#DEE439" transform="translate(0,0)"/>
<path d="" fill="#E7EB36" transform="translate(0,0)"/>
<path d="" fill="#E8EE39" transform="translate(0,0)"/>
<path d="" fill="#DCE53C" transform="translate(0,0)"/>
<path d="" fill="#D8E039" transform="translate(0,0)"/>
<path d="" fill="#D8DF3E" transform="translate(0,0)"/>
<path d="" fill="#E4EB38" transform="translate(0,0)"/>
<path d="" fill="#E4EB37" transform="translate(0,0)"/>
<path d="" fill="#DFE436" transform="translate(0,0)"/>
<path d="" fill="#E6ED37" transform="translate(0,0)"/>
<path d="" fill="#E5EB39" transform="translate(0,0)"/>
<path d="" fill="#E7ED37" transform="translate(0,0)"/>
<path d="" fill="#E6EC36" transform="translate(0,0)"/>
<path d="" fill="#E5ED37" transform="translate(0,0)"/>
<path d="" fill="#E6EB35" transform="translate(0,0)"/>
<path d="" fill="#E5EA38" transform="translate(0,0)"/>
<path d="" fill="#E5EC37" transform="translate(0,0)"/>
<path d="" fill="#E6EC37" transform="translate(0,0)"/>
<path d="" fill="#E6ED37" transform="translate(0,0)"/>
<path d="" fill="#E6EC37" transform="translate(0,0)"/>
<path d="" fill="#E6EA37" transform="translate(0,0)"/>
<path d="" fill="#E6EB3A" transform="translate(0,0)"/>
<path d="" fill="#E5E938" transform="translate(0,0)"/>
<path d="" fill="#E6EC36" transform="translate(0,0)"/>
<path d="" fill="#E8EC37" transform="translate(0,0)"/>
<path d="" fill="#E5EA36" transform="translate(0,0)"/>
<path d="" fill="#E6ED38" transform="translate(0,0)"/>
<path d="" fill="#E3EC35" transform="translate(0,0)"/>
<path d="" fill="#E6EC36" transform="translate(0,0)"/>
<path d="" fill="#E7ED36" transform="translate(0,0)"/>
<path d="" fill="#E7EB38" transform="translate(0,0)"/>
<path d="" fill="#E7ED37" transform="translate(0,0)"/>
<path d="" fill="#E6EC38" transform="translate(0,0)"/>
<path d="" fill="#E5E939" transform="translate(0,0)"/>
<path d="" fill="#E1E939" transform="translate(0,0)"/>
<path d="" fill="#E7ED36" transform="translate(0,0)"/>
<path d="" fill="#E5EA34" transform="translate(0,0)"/>
<path d="" fill="#E2EB3A" transform="translate(0,0)"/>
<path d="" fill="#E5E73C" transform="translate(0,0)"/>
<path d="" fill="#E6ED36" transform="translate(0,0)"/>
<path d="" fill="#E6EE37" transform="translate(0,0)"/>
<path d="" fill="#E8ED37" transform="translate(0,0)"/>
<path d="" fill="#E6ED3A" transform="translate(0,0)"/>
<path d="" fill="#E4EB36" transform="translate(0,0)"/>
<path d="" fill="#E6ED36" transform="translate(0,0)"/>
<path d="" fill="#E7EE35" transform="translate(0,0)"/>
<path d="" fill="#E7E93B" transform="translate(0,0)"/>
<path d="" fill="#E6EC37" transform="translate(0,0)"/>
<path d="" fill="#E6EE3A" transform="translate(0,0)"/>
<path d="" fill="#DBE137" transform="translate(0,0)"/>
<path d="" fill="#E5EA3A" transform="translate(0,0)"/>
<path d="" fill="#E6EE36" transform="translate(0,0)"/>
<path d="" fill="#E5EB36" transform="translate(0,0)"/>
<path d="" fill="#DADE37" transform="translate(0,0)"/>
<path d="" fill="#E5E93D" transform="translate(0,0)"/>
<path d="" fill="#E6EB35" transform="translate(0,0)"/>
<path d="" fill="#E3EA34" transform="translate(0,0)"/>
<path d="" fill="#E5EB39" transform="translate(0,0)"/>
<path d="" fill="#E2E732" transform="translate(0,0)"/>
<path d="" fill="#E5EC3A" transform="translate(0,0)"/>
<path d="" fill="#DAE43D" transform="translate(0,0)"/>
<path d="" fill="#DDE33C" transform="translate(0,0)"/>
<path d="" fill="#E0E13D" transform="translate(0,0)"/>
<path d="" fill="#DFE737" transform="translate(0,0)"/>
<path d="" fill="#E0E43C" transform="translate(0,0)"/>
<path d="" fill="#E6EC35" transform="translate(0,0)"/>
<path d="" fill="#E3EC36" transform="translate(0,0)"/>
<path d="" fill="#E3EA35" transform="translate(0,0)"/>
<path d="" fill="#E5EC35" transform="translate(0,0)"/>
<path d="" fill="#E2E939" transform="translate(0,0)"/>
<path d="" fill="#E3E53F" transform="translate(0,0)"/>
<path d="" fill="#E3ED35" transform="translate(0,0)"/>
<path d="" fill="#DEE336" transform="translate(0,0)"/>
<path d="" fill="#DDE03C" transform="translate(0,0)"/>
<path d="" fill="#D8DC42" transform="translate(0,0)"/>
<path d="" fill="#666665" transform="translate(0,0)"/>
</svg>
